<svg width="20" height="20" viewBox="0 0 20 20" fill="none" xmlns="http://www.w3.org/2000/svg">
<path d="M19 4.00016H14V2.33016C13.9765 1.68998 13.7002 1.08522 13.2316 0.64845C12.7629 0.211684 12.1402 -0.0214492 11.5 0.000157736H8.5C7.85976 -0.0214492 7.23706 0.211684 6.76843 0.64845C6.2998 1.08522 6.02346 1.68998 6 2.33016V4.00016H1C0.734784 4.00016 0.48043 4.10552 0.292893 4.29305C0.105357 4.48059 0 4.73494 0 5.00016C0 5.26538 0.105357 5.51973 0.292893 5.70726C0.48043 5.8948 0.734784 6.00016 1 6.00016H2V17.0002C2 17.7958 2.31607 18.5589 2.87868 19.1215C3.44129 19.6841 4.20435 20.0002 5 20.0002H15C15.7957 20.0002 16.5587 19.6841 17.1213 19.1215C17.6839 18.5589 18 17.7958 18 17.0002V6.00016H19C19.2652 6.00016 19.5196 5.8948 19.7071 5.70726C19.8946 5.51973 20 5.26538 20 5.00016C20 4.73494 19.8946 4.48059 19.7071 4.29305C19.5196 4.10552 19.2652 4.00016 19 4.00016ZM8 14.0002C8 14.2654 7.89464 14.5197 7.70711 14.7073C7.51957 14.8948 7.26522 15.0002 7 15.0002C6.73479 15.0002 6.48043 14.8948 6.29289 14.7073C6.10536 14.5197 6 14.2654 6 14.0002V10.0002C6 9.73494 6.10536 9.48059 6.29289 9.29305C6.48043 9.10552 6.73479 9.00016 7 9.00016C7.26522 9.00016 7.51957 9.10552 7.70711 9.29305C7.89464 9.48059 8 9.73494 8 10.0002V14.0002ZM8 2.33016C8 2.17016 8.21 2.00016 8.5 2.00016H11.5C11.79 2.00016 12 2.17016 12 2.33016V4.00016H8V2.33016ZM14 14.0002C14 14.2654 13.8946 14.5197 13.7071 14.7073C13.5196 14.8948 13.2652 15.0002 13 15.0002C12.7348 15.0002 12.4804 14.8948 12.2929 14.7073C12.1054 14.5197 12 14.2654 12 14.0002V10.0002C12 9.73494 12.1054 9.48059 12.2929 9.29305C12.4804 9.10552 12.7348 9.00016 13 9.00016C13.2652 9.00016 13.5196 9.10552 13.7071 9.29305C13.8946 9.48059 14 9.73494 14 10.0002V14.0002Z" fill="white"/>
</svg>
